custom-analysis
version=1
nRows=4
nColumns=146
inDegrees=no

This file contains tibia displacement and acting force.

Units are S.I. units (seconds, meters, Newtons, ...)
Angles are in degrees.

endheader
time	APT	SIT	knee_angle	aACL_R_force	pACL_R_force	aPCL_R_force	pPCL_R_force	aMCL_R_force	mMCL_R_force	pMCL_R_force	aLCL_R_force	mLCL_R_force	pLCL_R_force	aPCL_L_force	pPCL_L_force	aMCL_L_force	aLCL_L_force	aACL_R_length	pACL_R_length	aPCL_R_length	pPCL_R_length	aMCL_R_length	mMCL_R_length	pMCL_R_length	aLCL_R_length	mLCL_R_length	pLCL_R_length	aPCL_L_length	pPCL_L_length	aMCL_L_length	aLCL_L_length	aACL_R_strain	pACL_R_strain	aPCL_R_strain	pPCL_R_strain	aMCL_R_strain	mMCL_R_strain	pMCL_R_strain	aLCL_R_strain	mLCL_R_strain	pLCL_R_strain	aPCL_L_strain	pPCL_L_strain	aMCL_L_strain	aLCL_L_strain	femur_lat_meniscii_l.femur_lat_l.force.X	femur_lat_meniscii_l.femur_lat_l.force.Y	femur_lat_meniscii_l.femur_lat_l.force.Z	femur_lat_meniscii_l.femur_lat_l.torque.X	femur_lat_meniscii_l.femur_lat_l.torque.Y	femur_lat_meniscii_l.femur_lat_l.torque.Z	femur_lat_meniscii_l.meniscus_lat_l.force.X	femur_lat_meniscii_l.meniscus_lat_l.force.Y	femur_lat_meniscii_l.meniscus_lat_l.force.Z	femur_lat_meniscii_l.meniscus_lat_l.torque.X	femur_lat_meniscii_l.meniscus_lat_l.torque.Y	femur_lat_meniscii_l.meniscus_lat_l.torque.Z	femur_med_meniscii_l.femur_med_l.force.X	femur_med_meniscii_l.femur_med_l.force.Y	femur_med_meniscii_l.femur_med_l.force.Z	femur_med_meniscii_l.femur_med_l.torque.X	femur_med_meniscii_l.femur_med_l.torque.Y	femur_med_meniscii_l.femur_med_l.torque.Z	femur_med_meniscii_l.meniscus_med_l.force.X	femur_med_meniscii_l.meniscus_med_l.force.Y	femur_med_meniscii_l.meniscus_med_l.force.Z	femur_med_meniscii_l.meniscus_med_l.torque.X	femur_med_meniscii_l.meniscus_med_l.torque.Y	femur_med_meniscii_l.meniscus_med_l.torque.Z	femur_lat_meniscii_r.femur_lat_r.force.X	femur_lat_meniscii_r.femur_lat_r.force.Y	femur_lat_meniscii_r.femur_lat_r.force.Z	femur_lat_meniscii_r.femur_lat_r.torque.X	femur_lat_meniscii_r.femur_lat_r.torque.Y	femur_lat_meniscii_r.femur_lat_r.torque.Z	femur_lat_meniscii_r.meniscus_lat_r.force.X	femur_lat_meniscii_r.meniscus_lat_r.force.Y	femur_lat_meniscii_r.meniscus_lat_r.force.Z	femur_lat_meniscii_r.meniscus_lat_r.torque.X	femur_lat_meniscii_r.meniscus_lat_r.torque.Y	femur_lat_meniscii_r.meniscus_lat_r.torque.Z	femur_med_meniscii_r.femur_med_r.force.X	femur_med_meniscii_r.femur_med_r.force.Y	femur_med_meniscii_r.femur_med_r.force.Z	femur_med_meniscii_r.femur_med_r.torque.X	femur_med_meniscii_r.femur_med_r.torque.Y	femur_med_meniscii_r.femur_med_r.torque.Z	femur_med_meniscii_r.meniscus_med_r.force.X	femur_med_meniscii_r.meniscus_med_r.force.Y	femur_med_meniscii_r.meniscus_med_r.force.Z	femur_med_meniscii_r.meniscus_med_r.torque.X	femur_med_meniscii_r.meniscus_med_r.torque.Y	femur_med_meniscii_r.meniscus_med_r.torque.Z	femur_med_tibia_l.tibia_upper_l.force.X	femur_med_tibia_l.tibia_upper_l.force.Y	femur_med_tibia_l.tibia_upper_l.force.Z	femur_med_tibia_l.tibia_upper_l.torque.X	femur_med_tibia_l.tibia_upper_l.torque.Y	femur_med_tibia_l.tibia_upper_l.torque.Z	femur_med_tibia_l.femur_med_l.force.X	femur_med_tibia_l.femur_med_l.force.Y	femur_med_tibia_l.femur_med_l.force.Z	femur_med_tibia_l.femur_med_l.torque.X	femur_med_tibia_l.femur_med_l.torque.Y	femur_med_tibia_l.femur_med_l.torque.Z	femur_lat_tibia_l.tibia_upper_l.force.X	femur_lat_tibia_l.tibia_upper_l.force.Y	femur_lat_tibia_l.tibia_upper_l.force.Z	femur_lat_tibia_l.tibia_upper_l.torque.X	femur_lat_tibia_l.tibia_upper_l.torque.Y	femur_lat_tibia_l.tibia_upper_l.torque.Z	femur_lat_tibia_l.femur_lat_l.force.X	femur_lat_tibia_l.femur_lat_l.force.Y	femur_lat_tibia_l.femur_lat_l.force.Z	femur_lat_tibia_l.femur_lat_l.torque.X	femur_lat_tibia_l.femur_lat_l.torque.Y	femur_lat_tibia_l.femur_lat_l.torque.Z	femur_med_tibia_r.tibia_upper_r.force.X	femur_med_tibia_r.tibia_upper_r.force.Y	femur_med_tibia_r.tibia_upper_r.force.Z	femur_med_tibia_r.tibia_upper_r.torque.X	femur_med_tibia_r.tibia_upper_r.torque.Y	femur_med_tibia_r.tibia_upper_r.torque.Z	femur_med_tibia_r.femur_med_r.force.X	femur_med_tibia_r.femur_med_r.force.Y	femur_med_tibia_r.femur_med_r.force.Z	femur_med_tibia_r.femur_med_r.torque.X	femur_med_tibia_r.femur_med_r.torque.Y	femur_med_tibia_r.femur_med_r.torque.Z	femur_lat_tibia_r.tibia_upper_r.force.X	femur_lat_tibia_r.tibia_upper_r.force.Y	femur_lat_tibia_r.tibia_upper_r.force.Z	femur_lat_tibia_r.tibia_upper_r.torque.X	femur_lat_tibia_r.tibia_upper_r.torque.Y	femur_lat_tibia_r.tibia_upper_r.torque.Z	femur_lat_tibia_r.femur_lat_r.force.X	femur_lat_tibia_r.femur_lat_r.force.Y	femur_lat_tibia_r.femur_lat_r.force.Z	femur_lat_tibia_r.femur_lat_r.torque.X	femur_lat_tibia_r.femur_lat_r.torque.Y	femur_lat_tibia_r.femur_lat_r.torque.Z	femur_lat_meniscii_force_r	femur_med_meniscii_force_r	femur_lat_tibia_force_r	femur_med_tibia_force_r
      0.11299841	      0.00350932	      0.00037854	     80.00011296	      0.00000000	      0.00000000	    686.12992545	    318.25370087	     19.43814227	      8.74764838	      2.57977306	      0.00000000	      0.00000000	      0.00000000	      0.00000000	      0.00000000	      0.00000001	      0.00000000	      0.03085777	      0.02434977	      0.03569236	      0.03231031	      0.06204215	      0.06155278	      0.06132086	      0.04977713	      0.04426918	      0.03896642	      0.01525851	      0.01651186	      0.06550154	      0.04489616	     -0.05069089	     -0.08317160	      0.14783788	      0.08105354	      0.05108081	      0.02942257	      0.00976257	     -0.11076063	     -0.21395091	     -0.25555200	      0.00000079	     -0.32847694	      0.00000060	     -0.00000086	      2.76307435	     50.99597937	     -9.56042239	      5.21997485	     -0.02578839	      1.48581788	     -2.76307435	    -50.99597937	      9.56042239	     -1.74637766	      0.02558040	     -0.48301696	     -3.31599387	     20.97615968	     -3.40468921	      0.94473225	     -0.02138609	     -1.00501789	      3.31599387	    -20.97615968	      3.40468921	      0.28075727	      0.00368718	     -0.29758878	    220.72300711	      8.96277109	     33.07813076	    -13.62627587	      5.41279374	     90.03759577	   -220.72300711	     -8.96277109	    -33.07813076	      0.53197924	     -7.11719345	     -2.20044762	     94.73726003	    -52.29189602	     -9.81382877	      2.96077020	     -1.85000406	     38.36356656	    -94.73726003	     52.29189602	      9.81382877	      0.74593698	      1.78044469	     -2.21043195	      0.00000000	      0.00000000	      0.00000000	      0.00000000	      0.00000000	      0.00000000	      0.00000000	      0.00000000	      0.00000000	      0.00000000	      0.00000000	      0.00000000	      0.00000000	      0.00000000	      0.00000000	      0.00000000	      0.00000000	      0.00000000	      0.00000000	      0.00000000	      0.00000000	      0.00000000	      0.00000000	      0.00000000	   -588.93065907	    -36.77847459	    126.24643068	     -1.75314130	     11.73736994	     -4.64634965	    588.93065907	     36.77847459	   -126.24643068	     51.98386019	    -10.37114763	    239.36710803	    -21.58514452	     -5.86238408	     -6.18919492	      0.22752255	     -0.77400429	     -0.06019763	     21.58514452	      5.86238408	      6.18919492	     -2.66254864	      0.52587393	      8.78750809	    223.36772342	    108.65496796	     23.20758809	    603.43196687
      0.11465353	      0.00353707	      0.00037660	     80.00011296	      0.00000000	      0.00000000	    684.44255454	    316.45643162	     19.70238437	      8.97735635	      2.77133965	      0.00000000	      0.00000000	      0.00000000	      0.00000000	      0.00000000	      0.00000001	      0.00000000	      0.03087768	      0.02436604	      0.03568319	      0.03229965	      0.06205163	      0.06155945	      0.06132518	      0.04977432	      0.04426557	      0.03896004	      0.01525851	      0.01651186	      0.06550154	      0.04489616	     -0.05007827	     -0.08255890	      0.14754288	      0.08069695	      0.05124147	      0.02953416	      0.00983369	     -0.11081085	     -0.21401516	     -0.25567395	      0.00000079	     -0.32847694	      0.00000060	     -0.00000086	      2.76307435	     50.99597937	     -9.56042239	      5.21997485	     -0.02578839	      1.48581788	     -2.76307435	    -50.99597937	      9.56042239	     -1.74637766	      0.02558040	     -0.48301696	     -3.31599387	     20.97615968	     -3.40468921	      0.94473225	     -0.02138609	     -1.00501789	      3.31599387	    -20.97615968	      3.40468921	      0.28075727	      0.00368718	     -0.29758878	    221.44978613	      9.47870657	     31.74300408	    -13.09198655	      5.41263014	     90.33495301	   -221.44978613	     -9.47870657	    -31.74300408	      0.52856904	     -7.08548463	     -2.18883388	     94.50310188	    -51.69192712	    -10.00223877	      3.03719292	     -1.85207107	     38.26951355	    -94.50310188	     51.69192712	     10.00223877	      0.74612542	      1.78749291	     -2.19024204	      0.00000000	      0.00000000	      0.00000000	      0.00000000	      0.00000000	      0.00000000	      0.00000000	      0.00000000	      0.00000000	      0.00000000	      0.00000000	      0.00000000	      0.00000000	      0.00000000	      0.00000000	      0.00000000	      0.00000000	      0.00000000	      0.00000000	      0.00000000	      0.00000000	      0.00000000	      0.00000000	      0.00000000	   -586.76516798	    -36.65948544	    127.63442935	     -1.76028071	     11.77065763	     -4.60575131	    586.76516798	     36.65948544	   -127.63442935	     52.54543131	    -10.36471760	    238.48072228	    -20.68033494	     -5.74646035	     -5.86627267	      0.22018885	     -0.73917112	     -0.05204724	     20.68033494	      5.74646035	      5.86627267	     -2.52758602	      0.50293447	      8.41771204	    223.91398340	    108.18011081	     22.25109469	    601.60437813
      0.11630866	      0.00356449	      0.00037459	     80.00011296	      0.00000000	      0.00000000	    682.80429242	    314.84302543	     19.75174519	      9.00614102	      2.78714264	      0.00000000	      0.00000000	      0.00000000	      0.00000000	      0.00000000	      0.00000001	      0.00000000	      0.03089777	      0.02438257	      0.03567402	      0.03228905	      0.06206153	      0.06156659	      0.06132999	      0.04977104	      0.04426147	      0.03895320	      0.01525851	      0.01651186	      0.06550154	      0.04489616	     -0.04946035	     -0.08193678	      0.14724793	      0.08034200	      0.05140916	      0.02965364	      0.00991286	     -0.11086943	     -0.21408784	     -0.25580459	      0.00000079	     -0.32847694	      0.00000060	     -0.00000086	      2.76307435	     50.99597937	     -9.56042239	      5.21997485	     -0.02578839	      1.48581788	     -2.76307435	    -50.99597937	      9.56042239	     -1.74637766	      0.02558040	     -0.48301696	     -3.31599387	     20.97615968	     -3.40468921	      0.94473225	     -0.02138609	     -1.00501789	      3.31599387	    -20.97615968	      3.40468921	      0.28075727	      0.00368718	     -0.29758878	    221.00633908	      9.96358114	     32.18367970	    -13.28287886	      5.40700725	     90.14824347	   -221.00633908	     -9.96358114	    -32.18367970	      0.54553926	     -7.09334471	     -2.15846782	     95.41239892	    -51.43942227	     -9.53576080	      2.85507318	     -1.86607701	     38.63174156	    -95.41239892	     51.43942227	      9.53576080	      0.74363974	      1.78417353	     -2.18211705	      0.00000000	      0.00000000	      0.00000000	      0.00000000	      0.00000000	      0.00000000	      0.00000000	      0.00000000	      0.00000000	      0.00000000	      0.00000000	      0.00000000	      0.00000000	      0.00000000	      0.00000000	      0.00000000	      0.00000000	      0.00000000	      0.00000000	      0.00000000	      0.00000000	      0.00000000	      0.00000000	      0.00000000	   -584.84694532	    -36.98363938	    125.65309037	     -1.73934664	     11.67223759	     -4.55172509	    584.84694532	     36.98363938	   -125.65309037	     51.74336977	    -10.32108284	    237.69100337	    -19.79667156	     -5.49970541	     -5.65088221	      0.21117344	     -0.70918826	     -0.04947672	     19.79667156	      5.49970541	      5.65088221	     -2.43406860	      0.48180188	      8.05822329	    223.55953145	    108.81392726	     21.30932740	    599.33499660
      0.11848943	      0.00360004	      0.00037230	     80.00011296	      0.00000000	      0.00000000	    680.61930819	    312.64731493	     20.11186610	      9.33217076	      3.07179656	      0.00000000	      0.00000000	      0.00000000	      0.00000000	      0.00000000	      0.00000001	      0.00000000	      0.03092324	      0.02440334	      0.03566185	      0.03227513	      0.06207457	      0.06157613	      0.06133651	      0.04976582	      0.04425521	      0.03894341	      0.01525851	      0.01651186	      0.06550154	      0.04489616	     -0.04867683	     -0.08115472	      0.14685656	      0.07987631	      0.05163017	      0.02981305	      0.01002034	     -0.11096272	     -0.21419908	     -0.25599153	      0.00000079	     -0.32847694	      0.00000060	     -0.00000086	      2.76307435	     50.99597937	     -9.56042239	      5.21997485	     -0.02578839	      1.48581788	     -2.76307435	    -50.99597937	      9.56042239	     -1.74637766	      0.02558040	     -0.48301696	     -3.31599387	     20.97615968	     -3.40468921	      0.94473225	     -0.02138609	     -1.00501789	      3.31599387	    -20.97615968	      3.40468921	      0.28075727	      0.00368718	     -0.29758878	    221.68794391	     10.75929679	     31.58144579	    -13.05640441	      5.41624340	     90.42674214	   -221.68794391	    -10.75929679	    -31.58144579	      0.55998583	     -7.09227888	     -2.13634773	     96.35783711	    -51.79185955	    -10.21620664	      3.12124655	     -1.89348530	     39.01502370	    -96.35783711	     51.79185955	     10.21620664	      0.74576363	      1.82536809	     -2.19659711	      0.00000000	      0.00000000	      0.00000000	      0.00000000	      0.00000000	      0.00000000	      0.00000000	      0.00000000	      0.00000000	      0.00000000	      0.00000000	      0.00000000	      0.00000000	      0.00000000	      0.00000000	      0.00000000	      0.00000000	      0.00000000	      0.00000000	      0.00000000	      0.00000000	      0.00000000	      0.00000000	      0.00000000	   -581.71581126	    -36.50062850	    126.77435483	     -1.73875506	     11.68210681	     -4.50978187	    581.71581126	     36.50062850	   -126.77435483	     52.19129390	    -10.29783993	    236.41446171	    -18.84529728	     -5.32222477	     -5.27525164	      0.20163492	     -0.67118539	     -0.04311762	     18.84529728	      5.32222477	      5.27525164	     -2.27619198	      0.45725793	      7.67009302	    224.18451031	    109.87083492	     20.28052232	    596.48748352
